<svg xmlns="http://www.w3.org/2000/svg" viewBox="0 0 512 512"><path fill="currentColor" d="M256 16C123.5 16 16 123.5 16 256s107.5 240 240 240 240-107.5 240-240S388.5 16 256 16zm0 48c106 0 192 86 192 192s-86 192-192 192S64 362 64 256 150 64 256 64zm0 48c-79.5 0-144 64.5-144 144s64.5 144 144 144 144-64.5 144-144-64.5-144-144-144zm78.6 65.4L224 288l-46.6-46.6 110.6-110.6c12.5-12.5 32.8-12.5 45.3 0l1.3 1.3c12.5 12.5 12.5 32.8 0 45.3zm-157.2 157.2L288 224l46.6 46.6-110.6 110.6c-12.5 12.5-32.8 12.5-45.3 0l-1.3-1.3c-12.5-12.5-12.5-32.8 0-45.3z"/></svg>