<svg xmlns="http://www.w3.org/2000/svg" viewBox="0 0 512 512"><path fill="currentColor" d="M144 16v32h224V16H144zm0 48v32c0 61.86 44.32 113.43 103 124.5V232h18v-11.5c58.68-11.07 103-62.64 103-124.5V64H144zm16 16h192v16c0 55.04-40.21 100.92-93 110.77V228h-6v-21.23C200.21 196.92 160 151.04 160 96V80zm-16 144v16c0 22.02 7.8 42.24 20.78 58H256v-18h-52.2c-8.5-11.42-13.8-25.3-13.8-40v-16h-16zm208 0v16c0 14.7-5.3 28.58-13.8 40H256v18h91.22c12.98-15.76 20.78-35.98 20.78-58v-16h-16zm-96 74v20h-8v-20h8zm-52.78 38c8.5 11.42 13.78 25.3 13.78 40v40h-16v-40c0-22.02 7.8-42.24 20.78-58H256v18h-52.78zm105.56 0c12.98 15.76 20.78 35.98 20.78 58v40h-16v-40c0-14.7-5.28-28.58-13.78-40H256v-18h92.78zM256 356v11.5c-58.68 11.07-103 62.64-103 124.5v16h224v-16c0-61.86-44.32-113.43-103-124.5V356h-18zm-87 104c6.48-47.7 41.54-86.36 87-96.77V380h18v-16.77c45.46 10.41 80.52 49.07 87 96.77H169zm-25 32v16h224v-16H144z"/></svg>