<svg xmlns="http://www.w3.org/2000/svg" viewBox="0 0 512 512"><path fill="currentColor" d="M395.8 21.28c-84.4 27.5-141.4 84.42-186.5 148.02l25.7 25.7 20.2-20.2c6.2-6.3 16.4-6.3 22.6 0 6.3 6.2 6.3 16.4 0 22.6l-20.2 20.2 17.7 17.7 20.2-20.2c6.2-6.3 16.4-6.3 22.6 0 6.3 6.2 6.3 16.4 0 22.6l-20.2 20.2 17.7 17.7 20.2-20.2c6.2-6.3 16.4-6.3 22.6 0 6.3 6.2 6.3 16.4 0 22.6l-20.2 20.2 20.6 20.6C424.8 258 485.2 196.3 490.7 115.6c-24.9 16.3-44.2 22.3-62.3 22.8-22.4.7-43.7-8.1-71.4-17.4l30.3-44c16.7 6.1 29.7 11.5 41.3 13.6 12.1 2.2 23 1 37.5-7-5-45.4-30.2-53.2-70.3-62.32zM185.7 193.4l-36.9 36.9 7.9 7.9 36.9-36.9-7.9-7.9zm141.8 118.7l-7.8 7.8 38.5 38.5c.5-1.4.8-2.8.8-4.4 0-7.8-3.1-15.7-9.1-21.6l-22.4-20.3zm-199 2.9L25.92 417.6c27.84 8.2 61.98 3.9 92.28-11.8l-43.5-43.5 30.3-30.4 7.9 7.9-22.4 22.4 45.1 45.2c16.3-15.7 30-35.4 36.5-55.5l-43.6-36.9zm54.1 45.8c-9.5 25.9-26.4 50.7-47.9 69.6 31.2-.7 59.9-7.5 77.5-30.5l-29.6-39.1z"/></svg>