<svg xmlns="http://www.w3.org/2000/svg" viewBox="0 0 512 512"><path fill="currentColor" d="M256 25c-13.2 0-24.9 6.8-33.4 17.3-8.5 10.4-14.3 24.7-17.3 40.7-6 32-3.8 70.5 8.5 105.8l23.9-26c-6.4-24.3-7.9-49.7-4.1-70.8 2.2-12.3 6.1-22.8 11.3-30.1 5.3-7.4 11.4-11 14.8-11.1h.6c3.4.1 9.5 3.7 14.8 11.1 5.2 7.3 9.1 17.8 11.3 30.1 3.8 21.1 2.3 46.5-4.1 70.8l23.9 26c12.3-35.3 14.5-73.8 8.5-105.8-3-16-8.8-30.3-17.3-40.7C288.9 31.8 277.2 25 264 25h-8zm-56 150.2l-38.7 42.1 13.2 12.2 50.9-55.4c-8.8-1.1-17.3-0.4-25.4 1.1zm112 0c-8.1-1.5-16.6-2.2-25.4-1.1l50.9 55.4 13.2-12.2-38.7-42.1zM153.2 224.5l-33.6 36.5c-24.8-2.1-46.1 4.1-61.4 15.1-15.8 11.3-25.4 27.2-29.5 43.6-4.1 16.4-2.7 33.4 4.3 47.9 7 14.5 20 26.4 39.5 33.1l15.1-39c-9.6-3.3-13.8-8.1-16.3-13.3-2.9-6.1-3.7-13.8-1.6-22.2 2.1-8.4 7.1-16.7 15.2-22.5 7.7-5.5 18.6-9.3 33.6-8.5l17.3-18.9 18.7 20.4 50.1-54.6-51.4-17.6zm205.6 0l-51.4 17.6 50.1 54.6 18.7-20.4 17.3 18.9c15-.8 25.9 3 33.6 8.5 8.1 5.8 13.1 14.1 15.2 22.5 2.1 8.4 1.3 16.1-1.6 22.2-2.5 5.2-6.7 10-16.3 13.3l15.1 39c19.5-6.7 32.5-18.6 39.5-33.1 7-14.5 8.4-31.5 4.3-47.9-4.1-16.4-13.7-32.3-29.5-43.6-15.3-11-36.6-17.2-61.4-15.1l-33.6-36.5zM196.9 247L135 314.4 256 445.7l121-131.3-61.9-67.4L256 308.5 196.9 247zm59.1 78.4l67.8 73.7c-14.6 11.8-31.1 20.9-48.8 26.9v56h-38v-56c-17.7-6-34.2-15.1-48.8-26.9L256 325.4z"/></svg>